<svg width="41" height="41" viewBox="0 0 41 41" fill="none" xmlns="http://www.w3.org/2000/svg">
<g clip-path="url(#clip0_40_2)">
<path d="M35.765 0.469849H5.66593C2.89932 0.469849 0.649414 2.71975 0.649414 5.48636V35.5854C0.649414 38.352 2.89932 40.6019 5.66593 40.6019H35.765C38.5316 40.6019 40.7815 38.352 40.7815 35.5854V5.48636C40.7815 2.71975 38.5316 0.469849 35.765 0.469849Z" fill="#1976D2"/>
<path fill-rule="evenodd" clip-rule="evenodd" d="M30.1632 17.0243H23.8926V12.0078C23.8926 10.6232 25.0163 10.7537 26.4009 10.7537H28.9091V4.48303H23.8926C21.8969 4.48303 19.9829 5.27582 18.5718 6.68699C17.1606 8.09815 16.3678 10.0121 16.3678 12.0078V17.0243H11.3513V23.2949H16.3678V37.0904H23.8926V23.2949H27.655L30.1632 17.0243Z" fill="#FAFAFA"/>
</g>
<defs>
<clipPath id="clip0_40_2">
<rect width="40.1321" height="40.1321" fill="white" transform="translate(0.649414 0.469849)"/>
</clipPath>
</defs>
</svg>
