<svg width="41" height="41" viewBox="0 0 41 41" fill="none" xmlns="http://www.w3.org/2000/svg">
<path d="M40.2324 20.5359C40.2324 31.6181 31.2486 40.6019 20.1664 40.6019C9.08422 40.6019 0.100342 31.6181 0.100342 20.5359C0.100342 9.45372 9.08422 0.469849 20.1664 0.469849C31.2486 0.469849 40.2324 9.45372 40.2324 20.5359Z" fill="#1778F2"/>
<path d="M30.2716 9.86472C29.9542 9.60066 29.5712 9.42761 29.1632 9.36396C28.7553 9.30032 28.3377 9.34847 27.955 9.50329L7.97709 17.5691C7.54985 17.7449 7.18618 18.0465 6.93433 18.4338C6.68248 18.8211 6.55438 19.2758 6.56701 19.7376C6.57965 20.1994 6.73244 20.6465 7.00509 21.0194C7.27775 21.3924 7.65737 21.6736 8.09359 21.8258L12.1347 23.2312L14.3871 30.6798C14.4177 30.7793 14.4621 30.874 14.519 30.9611C14.5277 30.9745 14.5399 30.9845 14.5491 30.9974C14.6148 31.0892 14.6943 31.1703 14.7848 31.238C14.8105 31.2576 14.8351 31.2759 14.8626 31.2934C14.9684 31.3636 15.0856 31.4149 15.209 31.4451L15.2222 31.4462L15.2297 31.4494C15.3038 31.4645 15.3793 31.4722 15.455 31.4723C15.4623 31.4723 15.4688 31.4688 15.476 31.4687C15.5902 31.4667 15.7034 31.447 15.8116 31.4103C15.8368 31.4018 15.8584 31.3874 15.8828 31.3771C15.9635 31.3436 16.0399 31.3008 16.1105 31.2494C16.1671 31.2017 16.2236 31.1541 16.2802 31.1065L19.2925 27.7807L23.7854 31.2611C24.1809 31.569 24.6678 31.7364 25.1691 31.7368C25.6943 31.7361 26.2034 31.5549 26.6109 31.2235C27.0184 30.8921 27.2996 30.4307 27.4074 29.9166L31.0445 12.0616C31.127 11.6598 31.0986 11.2431 30.9624 10.8561C30.8263 10.4691 30.5875 10.1264 30.2716 9.86472ZM15.897 23.5861C15.7425 23.7401 15.6368 23.9362 15.5933 24.15L15.2483 25.8267L14.3742 22.9359L18.9061 20.576L15.897 23.5861ZM25.1517 29.4985L19.8423 25.3856C19.6202 25.214 19.3415 25.1323 19.0619 25.1569C18.7823 25.1815 18.5222 25.3106 18.3334 25.5184L17.3687 26.5833L17.7096 24.9262L25.6056 17.0302C25.7941 16.842 25.9089 16.5925 25.9293 16.3269C25.9497 16.0613 25.8743 15.7972 25.7168 15.5825C25.5593 15.3677 25.33 15.2164 25.0706 15.1561C24.8111 15.0957 24.5387 15.1303 24.3025 15.2535L12.9705 21.1536L8.81863 19.6343L28.8607 11.6163L25.1517 29.4985Z" fill="white"/>
</svg>
